<?xml version="1.0" encoding="utf-8"?>
<!-- Generator: Adobe Illustrator 21.0.0, SVG Export Plug-In . SVG Version: 6.00 Build 0)  -->
<svg version="1.1" id="Layer_1" xmlns="http://www.w3.org/2000/svg" xmlns:xlink="http://www.w3.org/1999/xlink" x="0px" y="0px"
	 viewBox="0 0 195 195" style="enable-background:new 0 0 195 195;" xml:space="preserve">
<g>
	<g>
		<path d="M84.8,160l-47.1-47l71.9-71.9l47.1,47.1L84.8,160z M52.3,113l32.5,32.5l57.3-57.3l-32.5-32.5L52.3,113z"/>
	</g>
	<g>
		<path d="M149.3,95.6l-47.1-47.1l24-24l47.1,47.1L149.3,95.6z M116.8,48.5L149.3,81l9.4-9.4l-32.5-32.5L116.8,48.5z"/>
	</g>
	<g>
		<polygon points="25.7,170.5 40,111.7 50,114.2 39.6,157 83.7,147.7 85.9,157.8 		"/>
	</g>
	<g>
		<rect x="36.4" y="148.6" transform="matrix(0.7071 -0.7071 0.7071 0.7071 -98.118 74.462)" width="8.9" height="14.1"/>
	</g>
</g>
</svg>
