<?xml version="1.0" encoding="utf-8"?>
<!-- Generator: Adobe Illustrator 21.0.0, SVG Export Plug-In . SVG Version: 6.00 Build 0)  -->
<svg version="1.1" id="Layer_1" xmlns="http://www.w3.org/2000/svg" xmlns:xlink="http://www.w3.org/1999/xlink" x="0px" y="0px"
	 viewBox="0 0 411 108" style="enable-background:new 0 0 411 108;" xml:space="preserve">
<style type="text/css">
	.st0{fill:#EC576B;}
	.st1{fill:#FFFFFF;}
	.st2{fill:#E5E338;}
</style>
<g>
	<g>
		<path d="M5.8,102V9.7H31l23.8,33.6L78.5,9.7h25V102H77.3V71.9c0-7.3,0.1-15.3,0.3-21.7l-0.3-0.1c-3.8,5.9-8,11.8-12.1,17.7
			l-11,15.5L43.1,67.8C38.9,62,34.8,56,31,50.1l-0.3,0.1c0.1,6.4,0.3,14.4,0.3,21.7V102H5.8z"/>
		<path d="M152.8,98.9c-4.6,2.8-10.1,4.5-16.3,4.5c-5.7,0-10.7-1.3-14.8-3.9c-5-3.3-8-8.3-8-15c0-6.8,3.2-12,7.4-15
			c4.8-3.6,11.5-4.7,17.6-4.7c3.4,0,6.5,0.4,9.6,1v-0.9c0-1.9-0.5-3.3-1.8-4.6c-1.9-1.8-5.1-2.3-8.4-2.3c-6.6,0-13,2-18.2,4.2V42.5
			c5.4-2.4,13.8-4.6,23.2-4.6c9,0,17.3,2,22.7,6.1c5.6,4.2,7.8,10.1,7.8,18v18.1c0,2.5,0.9,4.1,3.2,4.1c0.9,0,1.9-0.3,2.9-0.8v17.3
			c-2.7,1.5-7,2.4-11.8,2.4c-5.2,0-10.4-1-14.7-4.2H152.8z M148.2,78c-1.1-0.3-2.8-0.4-3.7-0.4c-3.3,0-6.4,1.3-6.4,4.6
			c0,3.1,2.7,4.5,5.6,4.5c1.5,0,3.2-0.4,4.5-0.9V78z"/>
		<path d="M188,39.3h24.7V46l0.3,0.1c4.1-4.7,9.8-8,16.7-8c1.7,0,3.4,0.3,4.6,0.5v23.2c-2.3-0.5-4.8-0.8-6.9-0.8
			c-5.4,0-9.9,1.3-14.1,5.2V102H188V39.3z"/>
		<path d="M243.1,4.6h25.2V65l0.3,0.1l17.6-25.9H314l-20.9,28l21.8,34.7h-28.8l-17.5-30.8l-0.3,0.1V102h-25.2V4.6z"/>
		<path d="M334.6,5.3c7.4,0,13.3,5.9,13.3,13.1s-5.9,13.1-13.3,13.1s-13.2-5.9-13.2-13.1S327.2,5.3,334.6,5.3z M322,39.3h25.2V102
			H322V39.3z"/>
		<path d="M405.2,100.3c-3.6,1.7-9.7,3.1-15.7,3.1c-7.8,0-14.4-2.4-18.5-6.5c-3.6-3.6-6.1-8.9-6.1-19.7v-18h-9.3V39.3h9.3V23.6
			l25.2-4.3v20h15v19.9h-15v16.2c0,5,1.5,7.8,6.2,7.8c2.8,0,6.1-1,8.8-2V100.3z"/>
	</g>
	<g>
		<path class="st2" d="M77.5,50.3c-0.1,6.4-0.2,14.4-0.2,21.7V102H31V71.9c0-7.3-0.1-15.3-0.2-21.7l0.2-0.1
			C34.8,56,38.9,62,43.1,67.8l11.1,15.5l11-15.5C69.2,62,73.5,56,77.3,50.1L77.5,50.3z"/>
	</g>
</g>
</svg>
